<svg width="129" height="32" viewBox="0 0 129 32" fill="none" xmlns="http://www.w3.org/2000/svg">
<path d="M23 5H11" stroke="#3456FF" stroke-width="2" stroke-linecap="round" stroke-linejoin="round"/>
<path d="M13 5L5 27" stroke="#3456FF" stroke-width="2" stroke-linecap="round" stroke-linejoin="round"/>
<path d="M13 27L21 5" stroke="#3456FF" stroke-width="2" stroke-linecap="round" stroke-linejoin="round"/>
<path d="M8.63672 17H16.6367" stroke="#3456FF" stroke-width="2" stroke-linecap="round" stroke-linejoin="round"/>
<path d="M10.8125 11H18.8125" stroke="#3456FF" stroke-width="2" stroke-linecap="round" stroke-linejoin="round"/>
<path d="M6.44922 23H14.4492" stroke="#3456FF" stroke-width="2" stroke-linecap="round" stroke-linejoin="round"/>
<path d="M19.5 9.125L26 27" stroke="#3456FF" stroke-width="2" stroke-linecap="round" stroke-linejoin="round"/>
<path d="M15.5508 20H23.4508" stroke="#3456FF" stroke-width="2" stroke-linecap="round" stroke-linejoin="round"/>
<path d="M36.4 25L40.94 10.6H44.47L49.01 25H46.53L42.41 12.08H42.95L38.88 25H36.4ZM38.93 21.88V19.63H46.49V21.88H38.93ZM54.868 25.31C54.068 25.31 53.408 25.1767 52.888 24.91C52.368 24.6433 51.9546 24.3033 51.648 23.89C51.3413 23.4767 51.1146 23.0367 50.968 22.57C50.8213 22.1033 50.7246 21.6633 50.678 21.25C50.638 20.83 50.618 20.49 50.618 20.23V14.2H53.058V19.4C53.058 19.7333 53.0813 20.11 53.128 20.53C53.1746 20.9433 53.2813 21.3433 53.448 21.73C53.6213 22.11 53.8746 22.4233 54.208 22.67C54.548 22.9167 55.0046 23.04 55.578 23.04C55.8846 23.04 56.188 22.99 56.488 22.89C56.788 22.79 57.058 22.62 57.298 22.38C57.5446 22.1333 57.7413 21.7967 57.888 21.37C58.0346 20.9433 58.108 20.4033 58.108 19.75L59.538 20.36C59.538 21.28 59.358 22.1133 58.998 22.86C58.6446 23.6067 58.1213 24.2033 57.428 24.65C56.7346 25.09 55.8813 25.31 54.868 25.31ZM58.398 25V21.65H58.108V14.2H60.528V25H58.398ZM69.6675 25C68.9542 25.1333 68.2542 25.19 67.5675 25.17C66.8875 25.1567 66.2775 25.0333 65.7375 24.8C65.1975 24.56 64.7875 24.1833 64.5075 23.67C64.2608 23.2033 64.1308 22.7267 64.1175 22.24C64.1042 21.7533 64.0975 21.2033 64.0975 20.59V11.2H66.4975V20.45C66.4975 20.8833 66.5008 21.2633 66.5075 21.59C66.5208 21.9167 66.5908 22.1833 66.7175 22.39C66.9575 22.79 67.3408 23.0133 67.8675 23.06C68.3942 23.1067 68.9942 23.08 69.6675 22.98V25ZM62.1375 16.09V14.2H69.6675V16.09H62.1375ZM79.4598 25V19.8C79.4598 19.46 79.4365 19.0833 79.3898 18.67C79.3432 18.2567 79.2332 17.86 79.0598 17.48C78.8932 17.0933 78.6398 16.7767 78.2998 16.53C77.9665 16.2833 77.5132 16.16 76.9398 16.16C76.6332 16.16 76.3298 16.21 76.0298 16.31C75.7298 16.41 75.4565 16.5833 75.2098 16.83C74.9698 17.07 74.7765 17.4033 74.6298 17.83C74.4832 18.25 74.4098 18.79 74.4098 19.45L72.9798 18.84C72.9798 17.92 73.1565 17.0867 73.5098 16.34C73.8698 15.5933 74.3965 15 75.0898 14.56C75.7832 14.1133 76.6365 13.89 77.6498 13.89C78.4498 13.89 79.1098 14.0233 79.6298 14.29C80.1498 14.5567 80.5632 14.8967 80.8698 15.31C81.1765 15.7233 81.4032 16.1633 81.5498 16.63C81.6965 17.0967 81.7898 17.54 81.8298 17.96C81.8765 18.3733 81.8998 18.71 81.8998 18.97V25H79.4598ZM71.9698 25V10.6H74.1198V18.18H74.4098V25H71.9698ZM91.5533 25L87.3433 10.6H89.8733L92.7433 21L95.6033 10.62L98.1333 10.6L101.003 21L103.863 10.6H106.393L102.193 25H99.8133L96.8633 14.76L93.9333 25H91.5533ZM107.834 12.56V10.35H110.244V12.56H107.834ZM107.834 25V14.2H110.244V25H107.834ZM113.22 25L113.24 10.6H115.68V19.4L119.63 14.2H122.64L118.45 19.6L123 25H119.81L115.68 19.8V25H113.22ZM124.202 12.56V10.35H126.612V12.56H124.202ZM124.202 25V14.2H126.612V25H124.202Z" fill="#3456FF"/>
</svg>
