<svg width="176" height="176" viewBox="0 0 176 176" fill="none" xmlns="http://www.w3.org/2000/svg">
<rect width="176" height="176" rx="8" fill="#8C7F7A"/>
<path d="M58 133C69.0457 133 78 124.046 78 113C78 101.954 69.0457 93 58 93C46.9543 93 38 101.954 38 113C38 124.046 46.9543 133 58 133Z" stroke="#FCFCFC" stroke-width="2" stroke-linecap="round" stroke-linejoin="round"/>
<path d="M28 148C31.493 143.343 36.0224 139.563 41.2295 136.959C46.4366 134.355 52.1783 133 58 133C63.8217 133 69.5634 134.355 74.7705 136.959C79.9776 139.563 84.507 143.343 88 148" stroke="#FCFCFC" stroke-width="2" stroke-linecap="round" stroke-linejoin="round"/>
<path d="M58 68C69.0457 68 78 59.0457 78 48C78 36.9543 69.0457 28 58 28C46.9543 28 38 36.9543 38 48C38 59.0457 46.9543 68 58 68Z" stroke="#FCFCFC" stroke-width="2" stroke-linecap="round" stroke-linejoin="round"/>
<path d="M28 83C31.493 78.3426 36.0224 74.5625 41.2295 71.959C46.4366 69.3554 52.1783 68 58 68C63.8217 68 69.5634 69.3554 74.7705 71.959C79.9776 74.5625 84.507 78.3426 88 83" stroke="#FCFCFC" stroke-width="2" stroke-linecap="round" stroke-linejoin="round"/>
<path d="M118 133C129.046 133 138 124.046 138 113C138 101.954 129.046 93 118 93C106.954 93 98 101.954 98 113C98 124.046 106.954 133 118 133Z" stroke="#FCFCFC" stroke-width="2" stroke-linecap="round" stroke-linejoin="round"/>
<path d="M88 148C91.493 143.343 96.0224 139.563 101.229 136.959C106.437 134.355 112.178 133 118 133C123.822 133 129.563 134.355 134.771 136.959C139.978 139.563 144.507 143.343 148 148" stroke="#FCFCFC" stroke-width="2" stroke-linecap="round" stroke-linejoin="round"/>
<path d="M118 68C129.046 68 138 59.0457 138 48C138 36.9543 129.046 28 118 28C106.954 28 98 36.9543 98 48C98 59.0457 106.954 68 118 68Z" stroke="#FCFCFC" stroke-width="2" stroke-linecap="round" stroke-linejoin="round"/>
<path d="M88 83C91.493 78.3426 96.0224 74.5625 101.229 71.959C106.437 69.3554 112.178 68 118 68C123.822 68 129.563 69.3554 134.771 71.959C139.978 74.5625 144.507 78.3426 148 83" stroke="#FCFCFC" stroke-width="2" stroke-linecap="round" stroke-linejoin="round"/>
</svg>
