<svg width="48" height="48" viewBox="0 0 48 48" fill="none" xmlns="http://www.w3.org/2000/svg">
<path d="M10.5375 19.5C10.535 17.7217 10.8843 15.9605 11.5654 14.3178C12.2465 12.6751 13.2458 11.1834 14.5059 9.92856C15.7659 8.67373 17.2618 7.6806 18.9073 7.00636C20.5528 6.33212 22.3155 5.9901 24.0937 6C31.5187 6.05625 37.4625 12.225 37.4625 19.6687V21C37.4625 27.7125 38.8687 31.6125 40.1062 33.75C40.2376 33.9776 40.3069 34.2358 40.3072 34.4987C40.3074 34.7615 40.2386 35.0198 40.1075 35.2477C39.9765 35.4756 39.7879 35.665 39.5606 35.7971C39.3333 35.9291 39.0753 35.9991 38.8125 36H9.18747C8.92461 35.9991 8.66661 35.9291 8.43932 35.7971C8.21202 35.665 8.02342 35.4756 7.89239 35.2477C7.76136 35.0198 7.69252 34.7615 7.69275 34.4987C7.69298 34.2358 7.76229 33.9776 7.89372 33.75C9.13122 31.6125 10.5375 27.7125 10.5375 21V19.5Z" stroke="black" stroke-width="2" stroke-linecap="round" stroke-linejoin="round"/>
<path d="M18 36V37.5C18 39.0913 18.6321 40.6174 19.7574 41.7426C20.8826 42.8679 22.4087 43.5 24 43.5C25.5913 43.5 27.1174 42.8679 28.2426 41.7426C29.3679 40.6174 30 39.0913 30 37.5V36" stroke="black" stroke-width="2" stroke-linecap="round" stroke-linejoin="round"/>
</svg>
