<svg width="36" height="32" viewBox="0 0 36 32" fill="none" xmlns="http://www.w3.org/2000/svg">
<path d="M4.53747 14.5C4.53497 12.7217 4.88431 10.9605 5.56539 9.3178C6.24646 7.6751 7.24581 6.18338 8.50586 4.92856C9.76591 3.67373 11.2618 2.6806 12.9073 2.00636C14.5528 1.33212 16.3155 0.9901 18.0937 0.999995C25.5187 1.05625 31.4625 7.225 31.4625 14.6687V16C31.4625 22.7125 32.8687 26.6125 34.1062 28.75C34.2376 28.9776 34.3069 29.2358 34.3072 29.4987C34.3074 29.7615 34.2386 30.0198 34.1075 30.2477C33.9765 30.4756 33.7879 30.665 33.5606 30.7971C33.3333 30.9291 33.0753 30.9991 32.8125 31H3.18747C2.92461 30.9991 2.66661 30.9291 2.43932 30.7971C2.21202 30.665 2.02342 30.4756 1.89239 30.2477C1.76136 30.0198 1.69252 29.7615 1.69275 29.4987C1.69298 29.2358 1.76229 28.9776 1.89372 28.75C3.13122 26.6125 4.53747 22.7125 4.53747 16V14.5Z" stroke="black" stroke-width="2" stroke-linecap="round" stroke-linejoin="round"/>
</svg>
