<svg width="48" height="45" viewBox="0 0 48 45" fill="none" xmlns="http://www.w3.org/2000/svg">
<path d="M24 18.9314V37.8002" stroke="black" stroke-width="2" stroke-linecap="round" stroke-linejoin="round"/>
<path d="M24 7.0509V11.9428" stroke="black" stroke-width="2" stroke-linecap="round" stroke-linejoin="round"/>
<path d="M24 18.9313C26.0711 18.9313 27.75 17.3669 27.75 15.4371C27.75 13.5073 26.0711 11.9429 24 11.9429C21.9289 11.9429 20.25 13.5073 20.25 15.4371C20.25 17.3669 21.9289 18.9313 24 18.9313Z" stroke="black" stroke-width="2" stroke-linecap="round" stroke-linejoin="round"/>
<path d="M37.5 32.9082V37.8001" stroke="black" stroke-width="2" stroke-linecap="round" stroke-linejoin="round"/>
<path d="M37.5 7.0509V25.9197" stroke="black" stroke-width="2" stroke-linecap="round" stroke-linejoin="round"/>
<path d="M37.5 32.9082C39.5711 32.9082 41.25 31.3438 41.25 29.414C41.25 27.4842 39.5711 25.9198 37.5 25.9198C35.4289 25.9198 33.75 27.4842 33.75 29.414C33.75 31.3438 35.4289 32.9082 37.5 32.9082Z" stroke="black" stroke-width="2" stroke-linecap="round" stroke-linejoin="round"/>
<path d="M10.5 27.3176V37.8003" stroke="black" stroke-width="2" stroke-linecap="round" stroke-linejoin="round"/>
<path d="M10.5 7.0509V20.329" stroke="black" stroke-width="2" stroke-linecap="round" stroke-linejoin="round"/>
<path d="M10.5 27.3174C12.5711 27.3174 14.25 25.753 14.25 23.8232C14.25 21.8934 12.5711 20.329 10.5 20.329C8.42893 20.329 6.75 21.8934 6.75 23.8232C6.75 25.753 8.42893 27.3174 10.5 27.3174Z" stroke="black" stroke-width="2" stroke-linecap="round" stroke-linejoin="round"/>
</svg>
