<svg width="38" height="38" viewBox="0 0 38 38" fill="none" xmlns="http://www.w3.org/2000/svg">
<path fill-rule="evenodd" clip-rule="evenodd" d="M0.666626 3.73002C0.666626 2.91758 0.98937 2.13841 1.56386 1.56392C2.13834 0.989434 2.91751 0.666691 3.72996 0.666691H34.2666C34.6692 0.666034 35.068 0.744796 35.4402 0.898469C35.8123 1.05214 36.1505 1.27771 36.4354 1.56225C36.7202 1.8468 36.9462 2.18473 37.1002 2.55671C37.2543 2.92868 37.3335 3.3274 37.3333 3.73002V34.2667C37.3337 34.6694 37.2548 35.0682 37.1009 35.4404C36.9471 35.8125 36.7213 36.1507 36.4367 36.4355C36.152 36.7204 35.8139 36.9463 35.4419 37.1003C35.0698 37.2544 34.671 37.3336 34.2683 37.3334H3.72996C3.32754 37.3334 2.92906 37.2541 2.55729 37.1C2.18552 36.946 1.84775 36.7202 1.56327 36.4355C1.27879 36.1509 1.05318 35.813 0.89933 35.4412C0.745481 35.0693 0.666407 34.6708 0.666626 34.2684V3.73002ZM15.18 14.6467H20.145V17.14C20.8616 15.7067 22.695 14.4167 25.45 14.4167C30.7316 14.4167 31.9833 17.2717 31.9833 22.51V32.2134H26.6383V23.7034C26.6383 20.72 25.9216 19.0367 24.1016 19.0367C21.5766 19.0367 20.5266 20.8517 20.5266 23.7034V32.2134H15.18V14.6467ZM6.01329 31.985H11.36V14.4167H6.01329V31.9834V31.985ZM12.125 8.68669C12.135 9.14448 12.0536 9.59967 11.8854 10.0255C11.7171 10.4514 11.4655 10.8394 11.1453 11.1667C10.8251 11.4941 10.4428 11.7541 10.0207 11.9317C9.59865 12.1093 9.14536 12.2007 8.68746 12.2007C8.22956 12.2007 7.77627 12.1093 7.3542 11.9317C6.93213 11.7541 6.54977 11.4941 6.22957 11.1667C5.90937 10.8394 5.65778 10.4514 5.48956 10.0255C5.32134 9.59967 5.23988 9.14448 5.24996 8.68669C5.26975 7.78811 5.6406 6.93301 6.2831 6.3045C6.9256 5.67599 7.78867 5.32405 8.68746 5.32405C9.58625 5.32405 10.4493 5.67599 11.0918 6.3045C11.7343 6.93301 12.1052 7.78811 12.125 8.68669V8.68669Z" fill="#007EBB"/>
</svg>
