<svg width="32" height="32" viewBox="0 0 32 32" fill="none" xmlns="http://www.w3.org/2000/svg">
<path d="M16 22C19.3137 22 22 19.3137 22 16C22 12.6863 19.3137 10 16 10C12.6863 10 10 12.6863 10 16C10 19.3137 12.6863 22 16 22Z" stroke="#111D55" stroke-width="2" stroke-linecap="round" stroke-linejoin="round"/>
<path d="M24.675 10.0875C24.9759 10.5183 25.2394 10.9742 25.4625 11.45L28.7 13.25C29.1043 15.0606 29.1085 16.9376 28.7125 18.75L25.4625 20.55C25.2394 21.0258 24.9759 21.4816 24.675 21.9125L24.7375 25.625C23.3654 26.8753 21.7415 27.8172 19.975 28.3875L16.7875 26.475C16.2632 26.5125 15.7368 26.5125 15.2125 26.475L12.0375 28.375C10.2654 27.8151 8.63612 26.8768 7.26251 25.625L7.32501 21.925C7.02659 21.4882 6.76327 21.0284 6.53751 20.55L3.30001 18.75C2.89575 16.9394 2.89149 15.0624 3.28751 13.25L6.53751 11.45C6.76061 10.9742 7.02407 10.5183 7.32501 10.0875L7.26251 6.37499C8.63457 5.12469 10.2585 4.18274 12.025 3.61249L15.2125 5.52499C15.7368 5.48748 16.2632 5.48748 16.7875 5.52499L19.9625 3.62499C21.7346 4.18486 23.3639 5.12318 24.7375 6.37499L24.675 10.0875Z" stroke="#111D55" stroke-width="2" stroke-linecap="round" stroke-linejoin="round"/>
</svg>
